<svg width="186" height="260" viewBox="0 0 186 260" fill="none" xmlns="http://www.w3.org/2000/svg">
<rect x="1.66406" y="1" width="183.33" height="257.98" rx="19" fill="white"/>
<rect x="1.66406" y="1" width="183.33" height="257.98" rx="19" stroke="#F1F5F9" stroke-width="2"/>
<rect x="53.3145" y="34" width="80" height="80" rx="20" fill="url(#paint0_linear_1_67)"/>
<path d="M73.3145 93.3H113.314V53.3H73.3145V93.3Z" fill="#0F172A"/>
<path d="M58.3594 159.216C57.5074 159.216 56.7154 159.06 55.9834 158.748C55.2634 158.436 54.6394 158.004 54.1114 157.452C53.5954 156.888 53.2174 156.234 52.9774 155.49L55.0114 154.608C55.3354 155.376 55.8034 155.982 56.4154 156.426C57.0274 156.858 57.7174 157.074 58.4854 157.074C58.9174 157.074 59.2894 157.008 59.6014 156.876C59.9254 156.732 60.1714 156.54 60.3394 156.3C60.5194 156.06 60.6094 155.772 60.6094 155.436C60.6094 155.04 60.4894 154.716 60.2494 154.464C60.0214 154.2 59.6734 153.996 59.2054 153.852L56.6314 153.024C55.5874 152.7 54.8014 152.214 54.2734 151.566C53.7454 150.918 53.4814 150.156 53.4814 149.28C53.4814 148.512 53.6674 147.834 54.0394 147.246C54.4234 146.658 54.9514 146.202 55.6234 145.878C56.3074 145.542 57.0874 145.374 57.9634 145.374C58.7674 145.374 59.5054 145.518 60.1774 145.806C60.8494 146.082 61.4254 146.472 61.9054 146.976C62.3974 147.468 62.7634 148.05 63.0034 148.722L60.9874 149.622C60.7234 148.95 60.3274 148.434 59.7994 148.074C59.2714 147.702 58.6594 147.516 57.9634 147.516C57.5554 147.516 57.1954 147.588 56.8834 147.732C56.5714 147.864 56.3254 148.056 56.1454 148.308C55.9774 148.548 55.8934 148.836 55.8934 149.172C55.8934 149.544 56.0134 149.874 56.2534 150.162C56.4934 150.438 56.8594 150.654 57.3514 150.81L59.8174 151.584C60.8854 151.932 61.6834 152.412 62.2114 153.024C62.7514 153.636 63.0214 154.392 63.0214 155.292C63.0214 156.06 62.8234 156.738 62.4274 157.326C62.0314 157.914 61.4854 158.376 60.7894 158.712C60.0934 159.048 59.2834 159.216 58.3594 159.216ZM69.8157 159.216C68.8557 159.216 67.9797 158.994 67.1877 158.55C66.4077 158.106 65.7837 157.5 65.3157 156.732C64.8597 155.964 64.6317 155.088 64.6317 154.104C64.6317 153.12 64.8597 152.244 65.3157 151.476C65.7837 150.708 66.4077 150.102 67.1877 149.658C67.9677 149.214 68.8437 148.992 69.8157 148.992C70.7757 148.992 71.6457 149.214 72.4257 149.658C73.2057 150.102 73.8237 150.708 74.2797 151.476C74.7477 152.232 74.9817 153.108 74.9817 154.104C74.9817 155.088 74.7477 155.964 74.2797 156.732C73.8117 157.5 73.1877 158.106 72.4077 158.55C71.6277 158.994 70.7637 159.216 69.8157 159.216ZM69.8157 157.056C70.3437 157.056 70.8057 156.93 71.2017 156.678C71.6097 156.426 71.9277 156.078 72.1557 155.634C72.3957 155.178 72.5157 154.668 72.5157 154.104C72.5157 153.528 72.3957 153.024 72.1557 152.592C71.9277 152.148 71.6097 151.8 71.2017 151.548C70.8057 151.284 70.3437 151.152 69.8157 151.152C69.2757 151.152 68.8017 151.284 68.3937 151.548C67.9857 151.8 67.6617 152.148 67.4217 152.592C67.1937 153.024 67.0797 153.528 67.0797 154.104C67.0797 154.668 67.1937 155.178 67.4217 155.634C67.6617 156.078 67.9857 156.426 68.3937 156.678C68.8017 156.93 69.2757 157.056 69.8157 157.056ZM77.6929 159V151.314H75.9649V149.208H77.6929V148.884C77.6929 148.14 77.8429 147.51 78.1429 146.994C78.4549 146.466 78.8869 146.064 79.4389 145.788C79.9909 145.512 80.6449 145.374 81.4009 145.374C81.5449 145.374 81.7009 145.386 81.8689 145.41C82.0489 145.422 82.1989 145.44 82.3189 145.464V147.498C82.1989 147.474 82.0849 147.462 81.9769 147.462C81.8809 147.45 81.7909 147.444 81.7069 147.444C81.1789 147.444 80.7709 147.564 80.4829 147.804C80.1949 148.032 80.0509 148.392 80.0509 148.884V149.208H82.2289V151.314H80.0509V159H77.6929ZM88.7749 159.108C87.6709 159.108 86.8129 158.808 86.2009 158.208C85.6009 157.596 85.3009 156.738 85.3009 155.634V151.314H83.6089V149.208H83.7889C84.2689 149.208 84.6409 149.082 84.9049 148.83C85.1689 148.578 85.3009 148.212 85.3009 147.732V146.976H87.6589V149.208H89.9089V151.314H87.6589V155.508C87.6589 155.832 87.7129 156.108 87.8209 156.336C87.9409 156.564 88.1209 156.738 88.3609 156.858C88.6129 156.978 88.9309 157.038 89.3149 157.038C89.3989 157.038 89.4949 157.032 89.6029 157.02C89.7229 157.008 89.8369 156.996 89.9449 156.984V159C89.7769 159.024 89.5849 159.048 89.3689 159.072C89.1529 159.096 88.9549 159.108 88.7749 159.108ZM94.2124 159L90.8464 149.208H93.3304L95.7964 156.642L94.9324 156.624L97.5604 149.208H99.6484L102.258 156.624L101.394 156.642L103.86 149.208H106.344L102.978 159H100.872L98.2084 151.242H99.0004L96.3004 159H94.2124ZM110.256 159.216C109.572 159.216 108.978 159.102 108.474 158.874C107.97 158.646 107.58 158.322 107.304 157.902C107.028 157.47 106.89 156.972 106.89 156.408C106.89 155.868 107.01 155.388 107.25 154.968C107.49 154.536 107.862 154.176 108.366 153.888C108.87 153.6 109.506 153.396 110.274 153.276L113.478 152.754V154.554L110.724 155.022C110.256 155.106 109.908 155.256 109.68 155.472C109.452 155.688 109.338 155.97 109.338 156.318C109.338 156.654 109.464 156.924 109.716 157.128C109.98 157.32 110.304 157.416 110.688 157.416C111.18 157.416 111.612 157.314 111.984 157.11C112.368 156.894 112.662 156.6 112.866 156.228C113.082 155.856 113.19 155.448 113.19 155.004V152.484C113.19 152.064 113.022 151.716 112.686 151.44C112.362 151.152 111.93 151.008 111.39 151.008C110.886 151.008 110.436 151.146 110.04 151.422C109.656 151.686 109.374 152.04 109.194 152.484L107.268 151.548C107.46 151.032 107.76 150.588 108.168 150.216C108.588 149.832 109.08 149.532 109.644 149.316C110.208 149.1 110.82 148.992 111.479 148.992C112.284 148.992 112.992 149.142 113.604 149.442C114.216 149.73 114.69 150.138 115.026 150.666C115.374 151.182 115.548 151.788 115.548 152.484V159H113.316V157.326L113.82 157.29C113.568 157.71 113.268 158.064 112.92 158.352C112.572 158.628 112.176 158.844 111.732 159C111.288 159.144 110.796 159.216 110.256 159.216ZM117.727 159V149.208H119.941V151.386L119.761 151.062C119.989 150.33 120.343 149.82 120.823 149.532C121.315 149.244 121.903 149.1 122.587 149.1H123.163V151.188H122.317C121.645 151.188 121.105 151.398 120.697 151.818C120.289 152.226 120.085 152.802 120.085 153.546V159H117.727ZM129.103 159.216C128.095 159.216 127.213 158.988 126.457 158.532C125.701 158.076 125.113 157.458 124.693 156.678C124.273 155.898 124.063 155.034 124.063 154.086C124.063 153.102 124.273 152.232 124.693 151.476C125.125 150.708 125.707 150.102 126.439 149.658C127.183 149.214 128.011 148.992 128.923 148.992C129.691 148.992 130.363 149.118 130.939 149.37C131.527 149.622 132.025 149.97 132.433 150.414C132.841 150.858 133.153 151.368 133.369 151.944C133.585 152.508 133.693 153.12 133.693 153.78C133.693 153.948 133.681 154.122 133.657 154.302C133.645 154.482 133.615 154.638 133.567 154.77H126.007V152.97H132.235L131.119 153.816C131.227 153.264 131.197 152.772 131.029 152.34C130.873 151.908 130.609 151.566 130.237 151.314C129.877 151.062 129.439 150.936 128.923 150.936C128.431 150.936 127.993 151.062 127.609 151.314C127.225 151.554 126.931 151.914 126.727 152.394C126.535 152.862 126.463 153.432 126.511 154.104C126.463 154.704 126.541 155.238 126.745 155.706C126.961 156.162 127.273 156.516 127.681 156.768C128.101 157.02 128.581 157.146 129.121 157.146C129.661 157.146 130.117 157.032 130.489 156.804C130.873 156.576 131.173 156.27 131.389 155.886L133.297 156.822C133.105 157.29 132.805 157.704 132.397 158.064C131.989 158.424 131.503 158.706 130.939 158.91C130.387 159.114 129.775 159.216 129.103 159.216Z" fill="#0F172A"/>
<path d="M51.5047 191.8V182.35H49.5447V181.37H52.6247V191.8H51.5047ZM59.304 191.968C58.4827 191.968 57.7593 191.744 57.134 191.296C56.518 190.839 56.0373 190.209 55.692 189.406C55.3467 188.594 55.174 187.651 55.174 186.578C55.174 185.505 55.3467 184.567 55.692 183.764C56.0373 182.952 56.518 182.322 57.134 181.874C57.75 181.426 58.4687 181.202 59.29 181.202C60.1113 181.202 60.83 181.426 61.446 181.874C62.062 182.322 62.5427 182.952 62.888 183.764C63.2333 184.567 63.406 185.505 63.406 186.578C63.406 187.651 63.2333 188.594 62.888 189.406C62.552 190.218 62.076 190.848 61.46 191.296C60.844 191.744 60.1253 191.968 59.304 191.968ZM59.304 190.918C59.9013 190.918 60.424 190.736 60.872 190.372C61.32 190.008 61.67 189.504 61.922 188.86C62.174 188.207 62.3 187.446 62.3 186.578C62.3 185.71 62.174 184.954 61.922 184.31C61.67 183.657 61.32 183.153 60.872 182.798C60.424 182.434 59.8967 182.252 59.29 182.252C58.6927 182.252 58.17 182.434 57.722 182.798C57.274 183.153 56.924 183.657 56.672 184.31C56.42 184.954 56.294 185.71 56.294 186.578C56.294 187.437 56.42 188.193 56.672 188.846C56.924 189.499 57.274 190.008 57.722 190.372C58.1793 190.736 58.7067 190.918 59.304 190.918ZM68.1439 191.8V188.818H65.1619V187.768H68.1439V184.8H69.1939V187.768H72.1619V188.818H69.1939V191.8H68.1439ZM80.0351 191.968C79.3724 191.968 78.7704 191.842 78.2291 191.59C77.6877 191.338 77.2304 191.002 76.8571 190.582C76.4837 190.153 76.2177 189.681 76.0591 189.168L77.0671 188.79C77.3097 189.499 77.6877 190.041 78.2011 190.414C78.7144 190.778 79.3257 190.96 80.0351 190.96C80.4831 190.96 80.8751 190.89 81.2111 190.75C81.5564 190.601 81.8224 190.395 82.0091 190.134C82.1957 189.873 82.2891 189.569 82.2891 189.224C82.2891 188.711 82.1491 188.314 81.8691 188.034C81.5891 187.754 81.1877 187.539 80.6651 187.39L78.7891 186.83C78.0517 186.615 77.4824 186.256 77.0811 185.752C76.6891 185.248 76.4931 184.674 76.4931 184.03C76.4931 183.479 76.6284 182.994 76.8991 182.574C77.1697 182.145 77.5384 181.809 78.0051 181.566C78.4811 181.323 79.0177 181.202 79.6151 181.202C80.2404 181.202 80.8004 181.319 81.2951 181.552C81.7991 181.776 82.2237 182.075 82.5691 182.448C82.9144 182.821 83.1617 183.237 83.3111 183.694L82.3311 184.086C82.1071 183.47 81.7571 183.003 81.2811 182.686C80.8144 182.369 80.2637 182.21 79.6291 182.21C79.2277 182.21 78.8731 182.28 78.5651 182.42C78.2664 182.56 78.0331 182.761 77.8651 183.022C77.6971 183.283 77.6131 183.591 77.6131 183.946C77.6131 184.375 77.7484 184.763 78.0191 185.108C78.2897 185.444 78.7051 185.696 79.2651 185.864L80.9171 186.354C81.7384 186.597 82.3591 186.947 82.7791 187.404C83.1991 187.861 83.4091 188.435 83.4091 189.126C83.4091 189.686 83.2644 190.181 82.9751 190.61C82.6951 191.03 82.2984 191.361 81.7851 191.604C81.2811 191.847 80.6977 191.968 80.0351 191.968ZM88.9318 191.968C88.2225 191.968 87.5785 191.8 86.9998 191.464C86.4212 191.119 85.9592 190.652 85.6138 190.064C85.2778 189.467 85.1098 188.79 85.1098 188.034C85.1098 187.287 85.2778 186.62 85.6138 186.032C85.9498 185.444 86.4025 184.982 86.9718 184.646C87.5505 184.301 88.2038 184.128 88.9318 184.128C89.6598 184.128 90.3085 184.296 90.8778 184.632C91.4565 184.968 91.9092 185.43 92.2358 186.018C92.5718 186.606 92.7398 187.278 92.7398 188.034C92.7398 188.799 92.5672 189.481 92.2218 190.078C91.8765 190.666 91.4145 191.128 90.8358 191.464C90.2665 191.8 89.6318 191.968 88.9318 191.968ZM88.9318 190.918C89.4358 190.918 89.8885 190.792 90.2898 190.54C90.7005 190.288 91.0225 189.943 91.2558 189.504C91.4985 189.065 91.6198 188.575 91.6198 188.034C91.6198 187.493 91.4985 187.007 91.2558 186.578C91.0225 186.149 90.7005 185.808 90.2898 185.556C89.8885 185.304 89.4358 185.178 88.9318 185.178C88.4278 185.178 87.9705 185.304 87.5598 185.556C87.1585 185.808 86.8365 186.149 86.5938 186.578C86.3512 187.007 86.2298 187.493 86.2298 188.034C86.2298 188.575 86.3512 189.065 86.5938 189.504C86.8365 189.943 87.1585 190.288 87.5598 190.54C87.9705 190.792 88.4278 190.918 88.9318 190.918ZM94.5917 191.8V181.202H95.6417V191.8H94.5917ZM100.451 191.968C99.9282 191.968 99.4522 191.847 99.0229 191.604C98.5936 191.352 98.2529 191.007 98.0009 190.568C97.7582 190.12 97.6369 189.607 97.6369 189.028V184.296H98.6869V188.902C98.6869 189.303 98.7662 189.658 98.9249 189.966C99.0929 190.265 99.3216 190.498 99.6109 190.666C99.9096 190.834 100.25 190.918 100.633 190.918C101.016 190.918 101.356 190.834 101.655 190.666C101.954 190.489 102.187 190.241 102.355 189.924C102.523 189.597 102.607 189.21 102.607 188.762V184.296H103.657V191.8H102.607V190.344L102.845 190.4C102.668 190.885 102.364 191.268 101.935 191.548C101.506 191.828 101.011 191.968 100.451 191.968ZM108.686 191.884C108.014 191.884 107.496 191.688 107.132 191.296C106.768 190.904 106.586 190.344 106.586 189.616V185.346H105.2V184.296H105.55C105.868 184.296 106.12 184.193 106.306 183.988C106.493 183.773 106.586 183.507 106.586 183.19V182.56H107.636V184.296H109.288V185.346H107.636V189.616C107.636 189.868 107.674 190.092 107.748 190.288C107.823 190.475 107.949 190.624 108.126 190.736C108.313 190.848 108.56 190.904 108.868 190.904C108.943 190.904 109.032 190.899 109.134 190.89C109.237 190.881 109.326 190.871 109.4 190.862V191.8C109.288 191.828 109.162 191.847 109.022 191.856C108.882 191.875 108.77 191.884 108.686 191.884ZM111.244 191.8V184.296H112.294V191.8H111.244ZM111.244 182.91V181.37H112.294V182.91H111.244ZM117.957 191.968C117.248 191.968 116.604 191.8 116.025 191.464C115.447 191.119 114.985 190.652 114.639 190.064C114.303 189.467 114.135 188.79 114.135 188.034C114.135 187.287 114.303 186.62 114.639 186.032C114.975 185.444 115.428 184.982 115.997 184.646C116.576 184.301 117.229 184.128 117.957 184.128C118.685 184.128 119.334 184.296 119.903 184.632C120.482 184.968 120.935 185.43 121.261 186.018C121.597 186.606 121.765 187.278 121.765 188.034C121.765 188.799 121.593 189.481 121.247 190.078C120.902 190.666 120.44 191.128 119.861 191.464C119.292 191.8 118.657 191.968 117.957 191.968ZM117.957 190.918C118.461 190.918 118.914 190.792 119.315 190.54C119.726 190.288 120.048 189.943 120.281 189.504C120.524 189.065 120.645 188.575 120.645 188.034C120.645 187.493 120.524 187.007 120.281 186.578C120.048 186.149 119.726 185.808 119.315 185.556C118.914 185.304 118.461 185.178 117.957 185.178C117.453 185.178 116.996 185.304 116.585 185.556C116.184 185.808 115.862 186.149 115.619 186.578C115.377 187.007 115.255 187.493 115.255 188.034C115.255 188.575 115.377 189.065 115.619 189.504C115.862 189.943 116.184 190.288 116.585 190.54C116.996 190.792 117.453 190.918 117.957 190.918ZM123.617 191.8V184.296H124.667V185.752L124.429 185.696C124.616 185.211 124.919 184.828 125.339 184.548C125.768 184.268 126.263 184.128 126.823 184.128C127.355 184.128 127.831 184.249 128.251 184.492C128.68 184.735 129.016 185.071 129.259 185.5C129.511 185.92 129.637 186.396 129.637 186.928V191.8H128.587V187.334C128.587 186.877 128.503 186.489 128.335 186.172C128.176 185.855 127.948 185.612 127.649 185.444C127.36 185.267 127.024 185.178 126.641 185.178C126.258 185.178 125.918 185.267 125.619 185.444C125.32 185.612 125.087 185.859 124.919 186.186C124.751 186.503 124.667 186.886 124.667 187.334V191.8H123.617ZM134.246 191.968C133.528 191.968 132.898 191.786 132.356 191.422C131.815 191.058 131.423 190.563 131.18 189.938L132.062 189.518C132.277 189.975 132.576 190.339 132.958 190.61C133.35 190.881 133.78 191.016 134.246 191.016C134.694 191.016 135.072 190.909 135.38 190.694C135.688 190.47 135.842 190.181 135.842 189.826C135.842 189.565 135.768 189.359 135.618 189.21C135.469 189.051 135.296 188.93 135.1 188.846C134.904 188.762 134.732 188.701 134.582 188.664L133.504 188.356C132.814 188.16 132.314 187.885 132.006 187.53C131.698 187.175 131.544 186.765 131.544 186.298C131.544 185.859 131.656 185.477 131.88 185.15C132.104 184.823 132.408 184.571 132.79 184.394C133.173 184.217 133.598 184.128 134.064 184.128C134.699 184.128 135.273 184.296 135.786 184.632C136.309 184.959 136.678 185.416 136.892 186.004L135.996 186.424C135.81 186.004 135.539 185.677 135.184 185.444C134.839 185.201 134.452 185.08 134.022 185.08C133.602 185.08 133.266 185.187 133.014 185.402C132.762 185.617 132.636 185.887 132.636 186.214C132.636 186.466 132.702 186.667 132.832 186.816C132.963 186.965 133.112 187.077 133.28 187.152C133.458 187.227 133.612 187.283 133.742 187.32L134.988 187.684C135.595 187.861 136.066 188.137 136.402 188.51C136.748 188.883 136.92 189.322 136.92 189.826C136.92 190.237 136.804 190.605 136.57 190.932C136.346 191.259 136.034 191.515 135.632 191.702C135.231 191.879 134.769 191.968 134.246 191.968Z" fill="#1F2937"/>
<defs>
<linearGradient id="paint0_linear_1_67" x1="53.3145" y1="34" x2="133.314" y2="114" gradientUnits="userSpaceOnUse">
<stop stop-color="#FF6B35"/>
<stop offset="1" stop-color="#FF8659"/>
</linearGradient>
</defs>
</svg>
